<svg xmlns="http://www.w3.org/2000/svg" xmlns:xlink="http://www.w3.org/1999/xlink" width="48" zoomAndPan="magnify" viewBox="0 0 36 36.000001" height="48" preserveAspectRatio="xMidYMid meet" version="1.0"><defs><clipPath id="10edadfabd"><path d="M 33 4 L 35.222656 4 L 35.222656 7 L 33 7 Z M 33 4 " clip-rule="nonzero"/></clipPath><clipPath id="223b08f7cd"><path d="M 6 32 L 9 32 L 9 34.296875 L 6 34.296875 Z M 6 32 " clip-rule="nonzero"/></clipPath></defs><path fill="#f1bc19" d="M 29.921875 0.503906 C 29.800781 0.503906 29.699219 0.546875 29.613281 0.632812 C 29.527344 0.71875 29.484375 0.820312 29.484375 0.941406 C 29.484375 1.0625 29.527344 1.164062 29.613281 1.25 C 29.699219 1.335938 29.800781 1.378906 29.921875 1.378906 C 30.042969 1.378906 30.144531 1.335938 30.230469 1.25 C 30.316406 1.164062 30.359375 1.0625 30.359375 0.941406 C 30.359375 0.820312 30.316406 0.71875 30.230469 0.632812 C 30.144531 0.546875 30.042969 0.503906 29.921875 0.503906 Z M 29.921875 0.503906 " fill-opacity="1" fill-rule="nonzero"/><path fill="#e4e4f9" d="M 18.09375 0.941406 C 17.5625 0.941406 17.035156 0.96875 16.507812 1.019531 C 15.976562 1.070312 15.453125 1.148438 14.933594 1.253906 C 14.414062 1.355469 13.898438 1.484375 13.390625 1.640625 C 12.882812 1.792969 12.382812 1.972656 11.894531 2.175781 C 11.402344 2.378906 10.921875 2.605469 10.453125 2.855469 C 9.988281 3.105469 9.53125 3.378906 9.089844 3.671875 C 8.648438 3.96875 8.222656 4.285156 7.8125 4.621094 C 7.402344 4.957031 7.011719 5.3125 6.636719 5.6875 C 6.257812 6.0625 5.902344 6.457031 5.566406 6.867188 C 5.230469 7.277344 4.914062 7.703125 4.621094 8.144531 C 4.324219 8.585938 4.050781 9.039062 3.800781 9.507812 C 3.550781 9.976562 3.324219 10.457031 3.121094 10.945312 C 2.917969 11.4375 2.738281 11.9375 2.585938 12.445312 C 2.433594 12.953125 2.304688 13.464844 2.199219 13.988281 C 2.097656 14.507812 2.019531 15.03125 1.964844 15.558594 C 1.914062 16.089844 1.886719 16.617188 1.886719 17.148438 C 1.886719 17.679688 1.914062 18.207031 1.964844 18.738281 C 2.019531 19.265625 2.097656 19.789062 2.199219 20.308594 C 2.304688 20.832031 2.433594 21.34375 2.585938 21.851562 C 2.738281 22.359375 2.917969 22.859375 3.121094 23.351562 C 3.324219 23.839844 3.550781 24.320312 3.800781 24.789062 C 4.050781 25.257812 4.324219 25.710938 4.621094 26.152344 C 4.914062 26.59375 5.230469 27.019531 5.566406 27.429688 C 5.902344 27.839844 6.257812 28.234375 6.636719 28.609375 C 7.011719 28.984375 7.402344 29.339844 7.8125 29.675781 C 8.222656 30.011719 8.648438 30.328125 9.089844 30.625 C 9.53125 30.917969 9.988281 31.191406 10.453125 31.441406 C 10.921875 31.691406 11.402344 31.917969 11.894531 32.121094 C 12.382812 32.324219 12.882812 32.503906 13.390625 32.65625 C 13.898438 32.8125 14.414062 32.941406 14.933594 33.042969 C 15.453125 33.148438 15.976562 33.226562 16.507812 33.277344 C 17.035156 33.328125 17.5625 33.355469 18.09375 33.355469 C 18.625 33.355469 19.15625 33.328125 19.683594 33.277344 C 20.210938 33.226562 20.734375 33.148438 21.257812 33.042969 C 21.777344 32.941406 22.292969 32.8125 22.800781 32.65625 C 23.308594 32.503906 23.804688 32.324219 24.296875 32.121094 C 24.789062 31.917969 25.265625 31.691406 25.734375 31.441406 C 26.203125 31.191406 26.65625 30.917969 27.097656 30.625 C 27.539062 30.328125 27.964844 30.011719 28.375 29.675781 C 28.785156 29.339844 29.179688 28.984375 29.554688 28.609375 C 29.929688 28.234375 30.285156 27.839844 30.621094 27.429688 C 30.960938 27.019531 31.277344 26.59375 31.570312 26.152344 C 31.867188 25.710938 32.136719 25.257812 32.386719 24.789062 C 32.636719 24.320312 32.863281 23.839844 33.066406 23.351562 C 33.269531 22.859375 33.449219 22.359375 33.605469 21.851562 C 33.757812 21.34375 33.886719 20.832031 33.992188 20.308594 C 34.09375 19.789062 34.171875 19.265625 34.222656 18.738281 C 34.277344 18.207031 34.300781 17.679688 34.300781 17.148438 C 34.300781 16.617188 34.277344 16.089844 34.222656 15.558594 C 34.171875 15.03125 34.09375 14.507812 33.992188 13.988281 C 33.886719 13.464844 33.757812 12.953125 33.605469 12.445312 C 33.449219 11.9375 33.269531 11.4375 33.066406 10.945312 C 32.863281 10.457031 32.636719 9.976562 32.386719 9.507812 C 32.136719 9.039062 31.867188 8.585938 31.570312 8.144531 C 31.277344 7.703125 30.960938 7.277344 30.621094 6.867188 C 30.285156 6.457031 29.929688 6.0625 29.554688 5.6875 C 29.179688 5.3125 28.785156 4.957031 28.375 4.621094 C 27.964844 4.285156 27.539062 3.96875 27.097656 3.671875 C 26.65625 3.378906 26.203125 3.105469 25.734375 2.855469 C 25.265625 2.605469 24.789062 2.378906 24.296875 2.175781 C 23.804688 1.972656 23.308594 1.792969 22.800781 1.640625 C 22.292969 1.484375 21.777344 1.355469 21.257812 1.253906 C 20.734375 1.148438 20.210938 1.070312 19.683594 1.019531 C 19.15625 0.96875 18.625 0.941406 18.09375 0.941406 Z M 18.09375 0.941406 " fill-opacity="1" fill-rule="nonzero"/><path fill="#f1bc19" d="M 32.550781 0.0664062 C 32.316406 0.0664062 32.09375 0.109375 31.878906 0.199219 C 31.664062 0.289062 31.476562 0.414062 31.3125 0.578125 C 31.144531 0.742188 31.019531 0.933594 30.929688 1.148438 C 30.84375 1.363281 30.796875 1.585938 30.796875 1.816406 C 30.796875 2.050781 30.84375 2.273438 30.929688 2.488281 C 31.019531 2.703125 31.144531 2.890625 31.3125 3.058594 C 31.476562 3.222656 31.664062 3.347656 31.878906 3.4375 C 32.09375 3.527344 32.316406 3.570312 32.550781 3.570312 C 32.78125 3.570312 33.003906 3.527344 33.21875 3.4375 C 33.433594 3.347656 33.625 3.222656 33.789062 3.058594 C 33.953125 2.890625 34.078125 2.703125 34.167969 2.488281 C 34.257812 2.273438 34.300781 2.050781 34.300781 1.816406 C 34.300781 1.585938 34.257812 1.363281 34.167969 1.148438 C 34.078125 0.933594 33.953125 0.742188 33.789062 0.578125 C 33.625 0.414062 33.433594 0.289062 33.21875 0.199219 C 33.003906 0.109375 32.78125 0.0664062 32.550781 0.0664062 Z M 32.550781 0.0664062 " fill-opacity="1" fill-rule="nonzero"/><g clip-path="url(#10edadfabd)"><path fill="#8889b9" d="M 34.300781 4.882812 C 34.058594 4.882812 33.851562 4.96875 33.683594 5.140625 C 33.511719 5.3125 33.425781 5.519531 33.425781 5.761719 C 33.425781 6 33.511719 6.207031 33.683594 6.378906 C 33.851562 6.550781 34.058594 6.636719 34.300781 6.636719 C 34.542969 6.636719 34.75 6.550781 34.921875 6.378906 C 35.09375 6.207031 35.179688 6 35.179688 5.761719 C 35.179688 5.519531 35.09375 5.3125 34.921875 5.140625 C 34.75 4.96875 34.542969 4.882812 34.300781 4.882812 Z M 34.300781 4.882812 " fill-opacity="1" fill-rule="nonzero"/></g><path fill="#fbcd59" d="M 31.671875 27.660156 C 31.433594 27.660156 31.226562 27.746094 31.054688 27.917969 C 30.882812 28.089844 30.796875 28.296875 30.796875 28.539062 C 30.796875 28.777344 30.882812 28.984375 31.054688 29.15625 C 31.226562 29.328125 31.433594 29.414062 31.671875 29.414062 C 31.914062 29.414062 32.121094 29.328125 32.292969 29.15625 C 32.464844 28.984375 32.550781 28.777344 32.550781 28.539062 C 32.550781 28.296875 32.464844 28.089844 32.292969 27.917969 C 32.121094 27.746094 31.914062 27.660156 31.671875 27.660156 Z M 2.765625 21.089844 C 2.53125 21.089844 2.308594 21.136719 2.09375 21.222656 C 1.878906 21.3125 1.6875 21.441406 1.523438 21.605469 C 1.359375 21.769531 1.234375 21.957031 1.144531 22.171875 C 1.054688 22.386719 1.011719 22.609375 1.011719 22.84375 C 1.011719 23.074219 1.054688 23.296875 1.144531 23.511719 C 1.234375 23.726562 1.359375 23.917969 1.523438 24.082031 C 1.6875 24.246094 1.878906 24.371094 2.09375 24.460938 C 2.308594 24.550781 2.53125 24.59375 2.765625 24.59375 C 2.996094 24.59375 3.21875 24.550781 3.433594 24.460938 C 3.648438 24.371094 3.839844 24.246094 4.003906 24.082031 C 4.167969 23.917969 4.292969 23.726562 4.382812 23.511719 C 4.472656 23.296875 4.515625 23.074219 4.515625 22.84375 C 4.515625 22.609375 4.472656 22.386719 4.382812 22.171875 C 4.292969 21.957031 4.167969 21.769531 4.003906 21.605469 C 3.839844 21.441406 3.648438 21.3125 3.433594 21.222656 C 3.21875 21.136719 2.996094 21.089844 2.765625 21.089844 Z M 2.765625 21.089844 " fill-opacity="1" fill-rule="nonzero"/><g clip-path="url(#223b08f7cd)"><path fill="#8889b9" d="M 7.144531 32.480469 C 6.902344 32.480469 6.695312 32.566406 6.523438 32.734375 C 6.355469 32.90625 6.269531 33.113281 6.269531 33.355469 C 6.269531 33.597656 6.355469 33.804688 6.523438 33.976562 C 6.695312 34.144531 6.902344 34.230469 7.144531 34.230469 C 7.386719 34.230469 7.59375 34.144531 7.765625 33.976562 C 7.933594 33.804688 8.019531 33.597656 8.019531 33.355469 C 8.019531 33.113281 7.933594 32.90625 7.765625 32.734375 C 7.59375 32.566406 7.386719 32.480469 7.144531 32.480469 Z M 7.144531 32.480469 " fill-opacity="1" fill-rule="nonzero"/></g><path fill="#ffffff" d="M 31.015625 9.265625 C 30.835938 9.265625 30.679688 9.328125 30.550781 9.457031 C 30.421875 9.585938 30.359375 9.738281 30.359375 9.921875 C 30.359375 10.101562 30.421875 10.257812 30.550781 10.386719 C 30.679688 10.515625 30.835938 10.578125 31.015625 10.578125 C 31.199219 10.578125 31.351562 10.515625 31.480469 10.386719 C 31.609375 10.257812 31.671875 10.101562 31.671875 9.921875 C 31.671875 9.738281 31.609375 9.585938 31.480469 9.457031 C 31.351562 9.328125 31.199219 9.265625 31.015625 9.265625 Z M 31.015625 9.265625 " fill-opacity="1" fill-rule="nonzero"/><path fill="#fdfcee" d="M 17.242188 20.351562 L 6.664062 20.351562 C 5.390625 20.351562 4.351562 19.273438 4.351562 17.960938 L 4.351562 13.246094 C 4.351562 11.929688 5.390625 10.851562 6.664062 10.851562 L 26.417969 10.851562 " fill-opacity="1" fill-rule="nonzero"/><path fill="#472b29" d="M 17.242188 20.660156 L 6.664062 20.660156 C 5.21875 20.660156 4.046875 19.449219 4.046875 17.960938 L 4.046875 13.246094 C 4.046875 11.757812 5.21875 10.546875 6.664062 10.546875 L 26.417969 10.546875 C 26.585938 10.546875 26.722656 10.683594 26.722656 10.851562 C 26.722656 11.023438 26.585938 11.160156 26.417969 11.160156 L 6.664062 11.160156 C 5.558594 11.160156 4.660156 12.09375 4.660156 13.246094 L 4.660156 17.960938 C 4.660156 19.109375 5.558594 20.046875 6.664062 20.046875 L 17.242188 20.046875 C 17.410156 20.046875 17.546875 20.183594 17.546875 20.351562 C 17.546875 20.519531 17.410156 20.660156 17.242188 20.660156 Z M 17.242188 20.660156 " fill-opacity="1" fill-rule="nonzero"/><path fill="#8f9eb6" d="M 23.664062 14.234375 L 31.0625 21.136719 L 27.488281 21.445312 L 29.519531 25.945312 L 28.164062 26.558594 L 26.191406 22 L 23.667969 24.402344 L 23.667969 14.234375 Z M 23.664062 14.234375 " fill-opacity="1" fill-rule="nonzero"/><path fill="#472b29" d="M 28.164062 26.867188 C 28.128906 26.867188 28.089844 26.859375 28.054688 26.847656 C 27.976562 26.816406 27.917969 26.757812 27.882812 26.683594 L 26.085938 22.523438 L 23.878906 24.625 C 23.789062 24.710938 23.65625 24.734375 23.546875 24.683594 C 23.433594 24.636719 23.359375 24.527344 23.359375 24.402344 L 23.359375 14.234375 C 23.359375 14.113281 23.433594 14 23.542969 13.953125 C 23.65625 13.902344 23.785156 13.925781 23.875 14.007812 L 31.269531 20.914062 C 31.359375 20.996094 31.390625 21.121094 31.351562 21.234375 C 31.3125 21.351562 31.207031 21.429688 31.089844 21.441406 L 27.945312 21.710938 L 29.800781 25.816406 C 29.871094 25.972656 29.800781 26.152344 29.648438 26.222656 L 28.292969 26.839844 C 28.25 26.859375 28.207031 26.867188 28.164062 26.867188 Z M 26.191406 21.691406 C 26.214844 21.691406 26.234375 21.695312 26.253906 21.699219 C 26.351562 21.71875 26.433594 21.785156 26.476562 21.878906 L 28.324219 26.152344 L 29.117188 25.792969 L 27.207031 21.570312 C 27.167969 21.480469 27.171875 21.375 27.222656 21.289062 C 27.273438 21.203125 27.363281 21.148438 27.460938 21.136719 L 30.347656 20.890625 L 23.972656 14.9375 L 23.972656 23.6875 L 25.980469 21.777344 C 26.039062 21.722656 26.113281 21.691406 26.191406 21.691406 Z M 26.191406 21.691406 " fill-opacity="1" fill-rule="nonzero"/><path fill="#1f212b" d="M 7.261719 14.015625 L 7.261719 15.265625 C 7.460938 15.003906 7.707031 14.929688 7.964844 14.929688 C 8.601562 14.929688 8.882812 15.359375 8.882812 16.019531 L 8.882812 17.203125 L 8.328125 17.203125 L 8.328125 16.023438 C 8.328125 15.613281 8.113281 15.441406 7.816406 15.441406 C 7.492188 15.441406 7.261719 15.71875 7.261719 16.058594 L 7.261719 17.203125 L 6.707031 17.203125 L 6.707031 14.015625 Z M 7.261719 14.015625 " fill-opacity="1" fill-rule="nonzero"/><path fill="#1f212b" d="M 10.207031 14.328125 L 10.207031 14.964844 L 10.828125 14.964844 L 10.828125 15.441406 L 10.203125 15.441406 L 10.203125 16.414062 C 10.203125 16.625 10.320312 16.730469 10.496094 16.730469 C 10.582031 16.730469 10.683594 16.703125 10.761719 16.664062 L 10.917969 17.136719 C 10.757812 17.199219 10.625 17.226562 10.457031 17.230469 C 9.972656 17.25 9.652344 16.972656 9.652344 16.410156 L 9.652344 15.441406 L 9.234375 15.441406 L 9.234375 14.964844 L 9.652344 14.964844 L 9.652344 14.386719 Z M 10.207031 14.328125 " fill-opacity="1" fill-rule="nonzero"/><path fill="#1f212b" d="M 12.007812 14.328125 L 12.007812 14.964844 L 12.625 14.964844 L 12.625 15.441406 L 12.003906 15.441406 L 12.003906 16.414062 C 12.003906 16.625 12.121094 16.730469 12.292969 16.730469 C 12.378906 16.730469 12.480469 16.703125 12.5625 16.664062 L 12.71875 17.136719 C 12.558594 17.199219 12.425781 17.226562 12.257812 17.230469 C 11.769531 17.25 11.449219 16.972656 11.449219 16.410156 L 11.449219 15.441406 L 11.03125 15.441406 L 11.03125 14.964844 L 11.449219 14.964844 L 11.449219 14.386719 Z M 12.007812 14.328125 " fill-opacity="1" fill-rule="nonzero"/><path fill="#1f212b" d="M 13.078125 18.144531 L 13.078125 14.960938 L 13.59375 14.960938 L 13.632812 15.269531 C 13.804688 15.019531 14.105469 14.910156 14.359375 14.910156 C 15.054688 14.910156 15.511719 15.425781 15.511719 16.085938 C 15.511719 16.742188 15.097656 17.257812 14.378906 17.257812 C 14.140625 17.257812 13.792969 17.1875 13.632812 16.941406 L 13.632812 18.144531 Z M 14.957031 16.085938 C 14.957031 15.734375 14.71875 15.445312 14.320312 15.445312 C 13.917969 15.445312 13.679688 15.734375 13.679688 16.085938 C 13.679688 16.4375 13.941406 16.722656 14.320312 16.722656 C 14.699219 16.722656 14.957031 16.4375 14.957031 16.085938 Z M 14.957031 16.085938 " fill-opacity="1" fill-rule="nonzero"/><path fill="#1f212b" d="M 16.5 15.597656 C 16.5 16.019531 15.851562 16.019531 15.851562 15.597656 C 15.851562 15.167969 16.5 15.167969 16.5 15.597656 Z M 16.5 16.917969 C 16.5 17.34375 15.851562 17.34375 15.851562 16.917969 C 15.851562 16.488281 16.5 16.488281 16.5 16.917969 Z M 16.5 16.917969 " fill-opacity="1" fill-rule="nonzero"/><path fill="#1f212b" d="M 18.792969 13.644531 L 17.242188 17.585938 L 16.652344 17.585938 L 18.199219 13.644531 Z M 18.792969 13.644531 " fill-opacity="1" fill-rule="nonzero"/><path fill="#1f212b" d="M 20.863281 13.644531 L 19.3125 17.585938 L 18.722656 17.585938 L 20.269531 13.644531 Z M 20.863281 13.644531 " fill-opacity="1" fill-rule="nonzero"/><path fill="#472b29" d="M 24.570312 16.832031 C 24.484375 16.832031 24.40625 16.785156 24.367188 16.703125 L 23.410156 14.511719 C 23.363281 14.402344 23.414062 14.273438 23.523438 14.222656 C 23.632812 14.175781 23.765625 14.226562 23.8125 14.335938 L 24.769531 16.527344 C 24.820312 16.636719 24.769531 16.765625 24.65625 16.816406 C 24.628906 16.828125 24.597656 16.832031 24.570312 16.832031 Z M 24.570312 16.832031 " fill-opacity="1" fill-rule="nonzero"/><path fill="#472b29" d="M 25.390625 18.558594 C 25.308594 18.558594 25.226562 18.511719 25.191406 18.429688 L 24.792969 17.554688 C 24.746094 17.445312 24.792969 17.3125 24.902344 17.265625 C 25.015625 17.214844 25.144531 17.261719 25.195312 17.375 L 25.589844 18.25 C 25.640625 18.359375 25.589844 18.488281 25.480469 18.539062 C 25.453125 18.550781 25.421875 18.558594 25.390625 18.558594 Z M 25.390625 18.558594 " fill-opacity="1" fill-rule="nonzero"/></svg>