<svg xmlns="http://www.w3.org/2000/svg" xmlns:xlink="http://www.w3.org/1999/xlink" width="75" zoomAndPan="magnify" viewBox="0 0 56.25 56.249997" height="75" preserveAspectRatio="xMidYMid meet" version="1.0"><defs><g/><clipPath id="3dc60b506d"><path d="M 40 2.082031 L 42 2.082031 L 42 4 L 40 4 Z M 40 2.082031 " clip-rule="nonzero"/></clipPath><clipPath id="1628cd8e92"><path d="M 42 2.082031 L 47 2.082031 L 47 7 L 42 7 Z M 42 2.082031 " clip-rule="nonzero"/></clipPath><clipPath id="be90ab2ac0"><path d="M 45 7 L 47.207031 7 L 47.207031 10 L 45 10 Z M 45 7 " clip-rule="nonzero"/></clipPath><clipPath id="ca8877f857"><path d="M 14 39 L 17 39 L 17 41.308594 L 14 41.308594 Z M 14 39 " clip-rule="nonzero"/></clipPath><clipPath id="d98a8b27b5"><path d="M 0 44 L 55.511719 44 L 55.511719 55.511719 L 0 55.511719 Z M 0 44 " clip-rule="nonzero"/></clipPath></defs><g clip-path="url(#3dc60b506d)"><path fill="#f1bc19" d="M 41.144531 2.65625 C 41.007812 2.65625 40.886719 2.707031 40.789062 2.804688 C 40.691406 2.902344 40.644531 3.019531 40.644531 3.160156 C 40.644531 3.296875 40.691406 3.414062 40.789062 3.511719 C 40.886719 3.609375 41.007812 3.660156 41.144531 3.660156 C 41.28125 3.660156 41.402344 3.609375 41.5 3.511719 C 41.597656 3.414062 41.644531 3.296875 41.644531 3.160156 C 41.644531 3.019531 41.597656 2.902344 41.5 2.804688 C 41.402344 2.707031 41.28125 2.65625 41.144531 2.65625 Z M 41.144531 2.65625 " fill-opacity="1" fill-rule="nonzero"/></g><path fill="#e4e4f9" d="M 27.617188 3.160156 C 27.011719 3.160156 26.40625 3.1875 25.800781 3.246094 C 25.195312 3.308594 24.597656 3.394531 24 3.515625 C 23.40625 3.632812 22.816406 3.78125 22.238281 3.957031 C 21.65625 4.132812 21.085938 4.335938 20.523438 4.570312 C 19.964844 4.800781 19.414062 5.0625 18.878906 5.347656 C 18.34375 5.632812 17.824219 5.945312 17.320312 6.28125 C 16.816406 6.621094 16.328125 6.980469 15.859375 7.367188 C 15.390625 7.75 14.941406 8.160156 14.511719 8.589844 C 14.082031 9.015625 13.675781 9.464844 13.289062 9.9375 C 12.902344 10.40625 12.542969 10.890625 12.207031 11.398438 C 11.867188 11.902344 11.554688 12.421875 11.269531 12.957031 C 10.984375 13.492188 10.726562 14.039062 10.492188 14.601562 C 10.261719 15.164062 10.054688 15.734375 9.878906 16.3125 C 9.703125 16.894531 9.554688 17.484375 9.4375 18.078125 C 9.320312 18.675781 9.230469 19.273438 9.171875 19.878906 C 9.113281 20.480469 9.082031 21.089844 9.082031 21.695312 C 9.082031 22.300781 9.113281 22.90625 9.171875 23.511719 C 9.230469 24.117188 9.320312 24.714844 9.4375 25.3125 C 9.554688 25.90625 9.703125 26.496094 9.878906 27.074219 C 10.054688 27.65625 10.261719 28.226562 10.492188 28.789062 C 10.726562 29.347656 10.984375 29.898438 11.269531 30.433594 C 11.554688 30.96875 11.867188 31.488281 12.207031 31.992188 C 12.542969 32.5 12.902344 32.984375 13.289062 33.453125 C 13.675781 33.921875 14.082031 34.371094 14.511719 34.800781 C 14.941406 35.230469 15.390625 35.640625 15.859375 36.023438 C 16.328125 36.410156 16.816406 36.769531 17.320312 37.109375 C 17.824219 37.445312 18.34375 37.757812 18.878906 38.042969 C 19.414062 38.328125 19.964844 38.589844 20.523438 38.820312 C 21.085938 39.054688 21.65625 39.257812 22.238281 39.433594 C 22.816406 39.609375 23.40625 39.757812 24 39.875 C 24.597656 39.992188 25.195312 40.082031 25.800781 40.140625 C 26.40625 40.203125 27.011719 40.230469 27.617188 40.230469 C 28.226562 40.230469 28.832031 40.203125 29.433594 40.140625 C 30.039062 40.082031 30.640625 39.992188 31.234375 39.875 C 31.828125 39.757812 32.417969 39.609375 33 39.433594 C 33.578125 39.257812 34.152344 39.054688 34.710938 38.820312 C 35.273438 38.589844 35.820312 38.328125 36.355469 38.042969 C 36.890625 37.757812 37.410156 37.445312 37.917969 37.109375 C 38.421875 36.769531 38.90625 36.410156 39.378906 36.023438 C 39.847656 35.640625 40.296875 35.230469 40.726562 34.800781 C 41.15625 34.371094 41.5625 33.921875 41.945312 33.453125 C 42.332031 32.984375 42.691406 32.5 43.03125 31.992188 C 43.367188 31.488281 43.679688 30.96875 43.964844 30.433594 C 44.25 29.898438 44.511719 29.347656 44.742188 28.789062 C 44.976562 28.226562 45.179688 27.65625 45.355469 27.074219 C 45.53125 26.496094 45.679688 25.90625 45.796875 25.3125 C 45.917969 24.714844 46.003906 24.117188 46.066406 23.511719 C 46.125 22.90625 46.15625 22.300781 46.15625 21.695312 C 46.15625 21.089844 46.125 20.480469 46.066406 19.878906 C 46.003906 19.273438 45.917969 18.675781 45.796875 18.078125 C 45.679688 17.484375 45.53125 16.894531 45.355469 16.3125 C 45.179688 15.734375 44.976562 15.164062 44.742188 14.601562 C 44.511719 14.039062 44.25 13.492188 43.964844 12.957031 C 43.679688 12.421875 43.367188 11.902344 43.03125 11.398438 C 42.691406 10.890625 42.332031 10.40625 41.945312 9.9375 C 41.5625 9.464844 41.15625 9.015625 40.726562 8.589844 C 40.296875 8.160156 39.847656 7.75 39.378906 7.367188 C 38.90625 6.980469 38.421875 6.621094 37.917969 6.28125 C 37.410156 5.945312 36.890625 5.632812 36.355469 5.347656 C 35.820312 5.0625 35.273438 4.800781 34.710938 4.570312 C 34.152344 4.335938 33.578125 4.132812 33 3.957031 C 32.417969 3.78125 31.828125 3.632812 31.234375 3.515625 C 30.640625 3.394531 30.039062 3.308594 29.433594 3.246094 C 28.832031 3.1875 28.226562 3.160156 27.617188 3.160156 Z M 27.617188 3.160156 " fill-opacity="1" fill-rule="nonzero"/><g clip-path="url(#1628cd8e92)"><path fill="#f1bc19" d="M 44.152344 2.15625 C 43.886719 2.15625 43.628906 2.207031 43.382812 2.308594 C 43.136719 2.410156 42.921875 2.554688 42.734375 2.742188 C 42.546875 2.929688 42.402344 3.148438 42.300781 3.394531 C 42.199219 3.640625 42.148438 3.894531 42.148438 4.160156 C 42.148438 4.425781 42.199219 4.683594 42.300781 4.925781 C 42.402344 5.171875 42.546875 5.390625 42.734375 5.578125 C 42.921875 5.765625 43.136719 5.910156 43.382812 6.011719 C 43.628906 6.113281 43.886719 6.164062 44.152344 6.164062 C 44.417969 6.164062 44.671875 6.113281 44.917969 6.011719 C 45.164062 5.910156 45.378906 5.765625 45.566406 5.578125 C 45.753906 5.390625 45.898438 5.171875 46 4.925781 C 46.105469 4.683594 46.15625 4.425781 46.15625 4.160156 C 46.15625 3.894531 46.105469 3.640625 46 3.394531 C 45.898438 3.148438 45.753906 2.929688 45.566406 2.742188 C 45.378906 2.554688 45.164062 2.410156 44.917969 2.308594 C 44.671875 2.207031 44.417969 2.15625 44.152344 2.15625 Z M 44.152344 2.15625 " fill-opacity="1" fill-rule="nonzero"/></g><g clip-path="url(#be90ab2ac0)"><path fill="#8889b9" d="M 46.15625 7.667969 C 46.023438 7.667969 45.894531 7.691406 45.769531 7.742188 C 45.648438 7.792969 45.539062 7.867188 45.445312 7.960938 C 45.351562 8.054688 45.28125 8.164062 45.230469 8.285156 C 45.179688 8.410156 45.152344 8.535156 45.152344 8.667969 C 45.152344 8.800781 45.179688 8.929688 45.230469 9.054688 C 45.28125 9.175781 45.351562 9.285156 45.445312 9.378906 C 45.539062 9.472656 45.648438 9.542969 45.769531 9.59375 C 45.894531 9.644531 46.023438 9.671875 46.15625 9.671875 C 46.289062 9.671875 46.414062 9.644531 46.539062 9.59375 C 46.660156 9.542969 46.769531 9.472656 46.863281 9.378906 C 46.957031 9.285156 47.027344 9.175781 47.082031 9.054688 C 47.132812 8.929688 47.15625 8.800781 47.15625 8.667969 C 47.15625 8.535156 47.132812 8.410156 47.082031 8.285156 C 47.027344 8.164062 46.957031 8.054688 46.863281 7.960938 C 46.769531 7.867188 46.660156 7.792969 46.539062 7.742188 C 46.414062 7.691406 46.289062 7.667969 46.15625 7.667969 Z M 46.15625 7.667969 " fill-opacity="1" fill-rule="nonzero"/></g><path fill="#fbcd59" d="M 43.148438 33.71875 C 43.015625 33.71875 42.886719 33.742188 42.765625 33.796875 C 42.640625 33.847656 42.535156 33.917969 42.441406 34.011719 C 42.347656 34.105469 42.273438 34.214844 42.222656 34.335938 C 42.171875 34.460938 42.148438 34.585938 42.148438 34.71875 C 42.148438 34.855469 42.171875 34.980469 42.222656 35.105469 C 42.273438 35.226562 42.347656 35.335938 42.441406 35.429688 C 42.535156 35.523438 42.640625 35.59375 42.765625 35.644531 C 42.886719 35.695312 43.015625 35.722656 43.148438 35.722656 C 43.28125 35.722656 43.410156 35.695312 43.53125 35.644531 C 43.65625 35.59375 43.761719 35.523438 43.855469 35.429688 C 43.949219 35.335938 44.023438 35.226562 44.074219 35.105469 C 44.125 34.980469 44.152344 34.855469 44.152344 34.71875 C 44.152344 34.585938 44.125 34.460938 44.074219 34.335938 C 44.023438 34.214844 43.949219 34.105469 43.855469 34.011719 C 43.761719 33.917969 43.65625 33.847656 43.53125 33.796875 C 43.410156 33.742188 43.28125 33.71875 43.148438 33.71875 Z M 10.082031 26.203125 C 9.816406 26.203125 9.5625 26.253906 9.316406 26.355469 C 9.070312 26.457031 8.855469 26.601562 8.667969 26.789062 C 8.480469 26.980469 8.332031 27.195312 8.230469 27.441406 C 8.128906 27.6875 8.078125 27.941406 8.078125 28.207031 C 8.078125 28.472656 8.128906 28.730469 8.230469 28.976562 C 8.332031 29.21875 8.480469 29.4375 8.667969 29.625 C 8.855469 29.8125 9.070312 29.957031 9.316406 30.058594 C 9.5625 30.160156 9.816406 30.210938 10.082031 30.210938 C 10.347656 30.210938 10.605469 30.160156 10.851562 30.058594 C 11.097656 29.957031 11.3125 29.8125 11.5 29.625 C 11.6875 29.4375 11.832031 29.21875 11.933594 28.976562 C 12.035156 28.730469 12.085938 28.472656 12.085938 28.207031 C 12.085938 27.941406 12.035156 27.6875 11.933594 27.441406 C 11.832031 27.195312 11.6875 26.980469 11.5 26.789062 C 11.3125 26.601562 11.097656 26.457031 10.851562 26.355469 C 10.605469 26.253906 10.347656 26.203125 10.082031 26.203125 Z M 10.082031 26.203125 " fill-opacity="1" fill-rule="nonzero"/><g clip-path="url(#ca8877f857)"><path fill="#8889b9" d="M 15.09375 39.230469 C 14.960938 39.230469 14.832031 39.253906 14.710938 39.304688 C 14.585938 39.355469 14.480469 39.429688 14.386719 39.523438 C 14.292969 39.617188 14.21875 39.726562 14.167969 39.847656 C 14.117188 39.972656 14.089844 40.097656 14.089844 40.230469 C 14.089844 40.363281 14.117188 40.492188 14.167969 40.613281 C 14.21875 40.738281 14.292969 40.847656 14.386719 40.941406 C 14.480469 41.035156 14.585938 41.105469 14.710938 41.15625 C 14.832031 41.207031 14.960938 41.234375 15.09375 41.234375 C 15.226562 41.234375 15.355469 41.207031 15.476562 41.15625 C 15.601562 41.105469 15.707031 41.035156 15.800781 40.941406 C 15.894531 40.847656 15.96875 40.738281 16.019531 40.613281 C 16.070312 40.492188 16.09375 40.363281 16.09375 40.230469 C 16.09375 40.097656 16.070312 39.972656 16.019531 39.847656 C 15.96875 39.726562 15.894531 39.617188 15.800781 39.523438 C 15.707031 39.429688 15.601562 39.355469 15.476562 39.304688 C 15.355469 39.253906 15.226562 39.230469 15.09375 39.230469 Z M 15.09375 39.230469 " fill-opacity="1" fill-rule="nonzero"/></g><path fill="#ffffff" d="M 42.398438 12.675781 C 42.191406 12.675781 42.011719 12.75 41.867188 12.898438 C 41.71875 13.042969 41.644531 13.222656 41.644531 13.429688 C 41.644531 13.636719 41.71875 13.8125 41.867188 13.960938 C 42.011719 14.105469 42.191406 14.179688 42.398438 14.179688 C 42.605469 14.179688 42.78125 14.105469 42.929688 13.960938 C 43.074219 13.8125 43.148438 13.636719 43.148438 13.429688 C 43.148438 13.222656 43.074219 13.042969 42.929688 12.898438 C 42.78125 12.75 42.605469 12.675781 42.398438 12.675781 Z M 42.398438 12.675781 " fill-opacity="1" fill-rule="nonzero"/><path fill="#fdfcee" d="M 26.640625 25.359375 L 14.542969 25.359375 C 13.089844 25.359375 11.898438 24.128906 11.898438 22.621094 L 11.898438 17.230469 C 11.898438 15.726562 13.089844 14.492188 14.542969 14.492188 L 37.136719 14.492188 " fill-opacity="1" fill-rule="nonzero"/><path fill="#472b29" d="M 26.640625 25.710938 L 14.542969 25.710938 C 12.894531 25.710938 11.550781 24.324219 11.550781 22.621094 L 11.550781 17.230469 C 11.550781 15.527344 12.894531 14.144531 14.542969 14.144531 L 37.136719 14.144531 C 37.332031 14.144531 37.488281 14.300781 37.488281 14.492188 C 37.488281 14.6875 37.332031 14.84375 37.136719 14.84375 L 14.542969 14.84375 C 13.277344 14.84375 12.25 15.914062 12.25 17.230469 L 12.25 22.621094 C 12.25 23.9375 13.277344 25.007812 14.542969 25.007812 L 26.640625 25.007812 C 26.835938 25.007812 26.992188 25.164062 26.992188 25.359375 C 26.992188 25.550781 26.835938 25.710938 26.640625 25.710938 Z M 26.640625 25.710938 " fill-opacity="1" fill-rule="nonzero"/><path fill="#8f9eb6" d="M 33.988281 18.359375 L 42.449219 26.257812 L 38.359375 26.609375 L 40.6875 31.753906 L 39.136719 32.460938 L 36.878906 27.242188 L 33.988281 29.992188 Z M 33.988281 18.359375 " fill-opacity="1" fill-rule="nonzero"/><path fill="#472b29" d="M 39.136719 32.808594 C 39.09375 32.808594 39.050781 32.800781 39.007812 32.785156 C 38.921875 32.753906 38.851562 32.683594 38.8125 32.597656 L 36.757812 27.84375 L 34.230469 30.246094 C 34.128906 30.34375 33.980469 30.371094 33.851562 30.316406 C 33.722656 30.261719 33.640625 30.132812 33.640625 29.992188 L 33.640625 18.359375 C 33.640625 18.222656 33.722656 18.09375 33.851562 18.039062 C 33.976562 17.984375 34.125 18.007812 34.230469 18.105469 L 42.6875 26 C 42.789062 26.09375 42.824219 26.238281 42.78125 26.371094 C 42.734375 26.5 42.617188 26.59375 42.480469 26.605469 L 38.882812 26.914062 L 41.003906 31.609375 C 41.085938 31.785156 41.007812 31.992188 40.832031 32.074219 L 39.28125 32.777344 C 39.234375 32.800781 39.183594 32.808594 39.136719 32.808594 Z M 36.878906 26.890625 C 36.902344 26.890625 36.925781 26.894531 36.949219 26.898438 C 37.0625 26.921875 37.15625 26.996094 37.203125 27.105469 L 39.316406 31.992188 L 40.222656 31.582031 L 38.042969 26.753906 C 37.992188 26.648438 38 26.527344 38.058594 26.429688 C 38.117188 26.332031 38.21875 26.269531 38.332031 26.257812 L 41.632812 25.972656 L 34.339844 19.167969 L 34.339844 29.175781 L 36.636719 26.988281 C 36.703125 26.925781 36.792969 26.890625 36.878906 26.890625 Z M 36.878906 26.890625 " fill-opacity="1" fill-rule="nonzero"/><path fill="#1f212b" d="M 15.230469 18.113281 L 15.230469 19.539062 C 15.457031 19.242188 15.738281 19.15625 16.03125 19.15625 C 16.761719 19.15625 17.082031 19.648438 17.082031 20.40625 L 17.082031 21.757812 L 16.449219 21.757812 L 16.449219 20.410156 C 16.449219 19.941406 16.203125 19.742188 15.863281 19.742188 C 15.488281 19.742188 15.226562 20.0625 15.226562 20.445312 L 15.226562 21.757812 L 14.59375 21.757812 L 14.59375 18.113281 Z M 15.230469 18.113281 " fill-opacity="1" fill-rule="nonzero"/><path fill="#1f212b" d="M 18.597656 18.46875 L 18.597656 19.195312 L 19.304688 19.195312 L 19.304688 19.742188 L 18.59375 19.742188 L 18.59375 20.851562 C 18.59375 21.097656 18.726562 21.21875 18.925781 21.21875 C 19.023438 21.21875 19.140625 21.1875 19.234375 21.140625 L 19.410156 21.679688 C 19.226562 21.753906 19.078125 21.785156 18.882812 21.789062 C 18.328125 21.8125 17.960938 21.492188 17.960938 20.851562 L 17.960938 19.742188 L 17.484375 19.742188 L 17.484375 19.195312 L 17.960938 19.195312 L 17.960938 18.535156 Z M 18.597656 18.46875 " fill-opacity="1" fill-rule="nonzero"/><path fill="#1f212b" d="M 20.65625 18.46875 L 20.65625 19.195312 L 21.363281 19.195312 L 21.363281 19.742188 L 20.648438 19.742188 L 20.648438 20.851562 C 20.648438 21.097656 20.785156 21.21875 20.984375 21.21875 C 21.082031 21.21875 21.195312 21.1875 21.289062 21.140625 L 21.46875 21.679688 C 21.285156 21.753906 21.132812 21.785156 20.941406 21.789062 C 20.382812 21.8125 20.019531 21.492188 20.019531 20.851562 L 20.019531 19.742188 L 19.539062 19.742188 L 19.539062 19.195312 L 20.019531 19.195312 L 20.019531 18.535156 Z M 20.65625 18.46875 " fill-opacity="1" fill-rule="nonzero"/><path fill="#1f212b" d="M 21.878906 22.832031 L 21.878906 19.191406 L 22.472656 19.191406 L 22.511719 19.546875 C 22.710938 19.257812 23.054688 19.132812 23.347656 19.132812 C 24.140625 19.132812 24.664062 19.722656 24.664062 20.476562 C 24.664062 21.230469 24.191406 21.820312 23.367188 21.820312 C 23.097656 21.820312 22.695312 21.738281 22.515625 21.457031 L 22.515625 22.832031 Z M 24.027344 20.476562 C 24.027344 20.078125 23.757812 19.75 23.300781 19.75 C 22.839844 19.75 22.570312 20.078125 22.570312 20.476562 C 22.570312 20.878906 22.867188 21.207031 23.300781 21.207031 C 23.734375 21.207031 24.027344 20.878906 24.027344 20.476562 Z M 24.027344 20.476562 " fill-opacity="1" fill-rule="nonzero"/><path fill="#1f212b" d="M 25.792969 19.921875 C 25.792969 20.40625 25.054688 20.40625 25.054688 19.921875 C 25.054688 19.429688 25.792969 19.429688 25.792969 19.921875 Z M 25.792969 21.429688 C 25.792969 21.917969 25.054688 21.917969 25.054688 21.429688 C 25.054688 20.941406 25.792969 20.941406 25.792969 21.429688 Z M 25.792969 21.429688 " fill-opacity="1" fill-rule="nonzero"/><path fill="#1f212b" d="M 28.417969 17.6875 L 26.640625 22.195312 L 25.96875 22.195312 L 27.738281 17.6875 Z M 28.417969 17.6875 " fill-opacity="1" fill-rule="nonzero"/><path fill="#1f212b" d="M 30.785156 17.6875 L 29.011719 22.195312 L 28.335938 22.195312 L 30.105469 17.6875 Z M 30.785156 17.6875 " fill-opacity="1" fill-rule="nonzero"/><path fill="#472b29" d="M 35.023438 21.335938 C 34.925781 21.335938 34.835938 21.277344 34.792969 21.183594 L 33.699219 18.679688 C 33.640625 18.554688 33.699219 18.40625 33.828125 18.351562 C 33.953125 18.296875 34.101562 18.351562 34.15625 18.480469 L 35.253906 20.984375 C 35.308594 21.109375 35.25 21.257812 35.125 21.3125 C 35.089844 21.328125 35.058594 21.335938 35.023438 21.335938 Z M 35.023438 21.335938 " fill-opacity="1" fill-rule="nonzero"/><path fill="#472b29" d="M 35.964844 23.308594 C 35.867188 23.308594 35.777344 23.253906 35.734375 23.160156 L 35.28125 22.160156 C 35.222656 22.03125 35.28125 21.882812 35.40625 21.828125 C 35.53125 21.769531 35.679688 21.828125 35.738281 21.953125 L 36.191406 22.953125 C 36.246094 23.078125 36.191406 23.230469 36.066406 23.285156 C 36.03125 23.300781 35.996094 23.308594 35.964844 23.308594 Z M 35.964844 23.308594 " fill-opacity="1" fill-rule="nonzero"/><g clip-path="url(#d98a8b27b5)"><path fill="#2b084d" d="M 2.285156 44.175781 L 53.46875 44.175781 C 54.304688 44.175781 55.105469 44.507812 55.695312 45.09375 C 56.285156 45.683594 56.617188 46.476562 56.617188 47.308594 L 56.617188 53.570312 C 56.617188 54.402344 56.285156 55.199219 55.695312 55.785156 C 55.105469 56.371094 54.304688 56.703125 53.46875 56.703125 L 2.285156 56.703125 C 0.546875 56.703125 -0.859375 55.300781 -0.859375 53.570312 L -0.859375 47.308594 C -0.859375 45.578125 0.546875 44.175781 2.285156 44.175781 " fill-opacity="1" fill-rule="nonzero"/></g><g fill="#e5ccfd" fill-opacity="1"><g transform="translate(2.726737, 52.676749)"><g><path d="M 2.539062 -6.765625 L 1.933594 -5.125 L 1.386719 -6.765625 L 0.0351562 -6.765625 L 0.449219 -5.476562 L 1.207031 -3.195312 L 0 0.0078125 L 1.386719 0.0078125 L 3.925781 -6.765625 Z M 2.539062 -6.765625 "/></g></g></g><g fill="#e5ccfd" fill-opacity="1"><g transform="translate(7.10169, 52.676749)"><g><path d="M 2.441406 -6.753906 L 1.503906 -6.753906 C 0.679688 -6.753906 0 -6.082031 0 -5.25 L 0 -1.492188 C 0 -0.660156 0.679688 0.0078125 1.503906 0.0078125 L 2.441406 0.0078125 C 3.273438 0.0078125 3.945312 -0.660156 3.945312 -1.492188 L 3.945312 -5.25 C 3.945312 -6.082031 3.273438 -6.753906 2.441406 -6.753906 Z M 2.65625 -1.492188 C 2.65625 -1.378906 2.558594 -1.289062 2.441406 -1.289062 L 1.503906 -1.289062 C 1.386719 -1.289062 1.296875 -1.378906 1.296875 -1.492188 L 1.296875 -5.25 C 1.296875 -5.367188 1.386719 -5.464844 1.503906 -5.464844 L 2.441406 -5.464844 C 2.558594 -5.464844 2.65625 -5.367188 2.65625 -5.25 Z M 2.65625 -1.492188 "/></g></g></g><g fill="#e5ccfd" fill-opacity="1"><g transform="translate(11.494538, 52.676749)"><g><path d="M 0 -6.765625 L 0 -1.492188 C 0 -0.660156 0.679688 0.0078125 1.503906 0.0078125 L 2.441406 0.0078125 C 3.273438 0.0078125 3.945312 -0.660156 3.945312 -1.492188 L 3.945312 -6.765625 L 2.65625 -6.765625 L 2.65625 -1.492188 C 2.65625 -1.378906 2.558594 -1.289062 2.441406 -1.289062 L 1.503906 -1.289062 C 1.386719 -1.289062 1.296875 -1.378906 1.296875 -1.492188 L 1.296875 -6.765625 Z M 0 -6.765625 "/></g></g></g><g fill="#e5ccfd" fill-opacity="1"><g transform="translate(15.887386, 52.676749)"><g><path d="M 3.507812 -2.71875 C 3.5 -3.058594 3.382812 -3.382812 3.175781 -3.632812 C 3.445312 -3.953125 3.597656 -4.367188 3.597656 -4.832031 C 3.597656 -5.886719 2.808594 -6.675781 1.699219 -6.765625 L 0 -6.753906 L 0 0.0078125 L 1.296875 0.0078125 L 1.296875 -2.90625 L 2.003906 -2.90625 C 2.121094 -2.90625 2.210938 -2.816406 2.210938 -2.710938 L 2.226562 0.0078125 L 3.515625 0.0078125 Z M 1.484375 -4.203125 L 1.304688 -4.203125 L 1.304688 -5.476562 L 1.484375 -5.476562 C 1.621094 -5.476562 2.300781 -5.441406 2.300781 -4.832031 C 2.300781 -4.25 1.683594 -4.203125 1.484375 -4.203125 Z M 1.484375 -4.203125 "/></g></g></g><g fill="#e5ccfd" fill-opacity="1"><g transform="translate(19.931313, 52.676749)"><g/></g></g><g fill="#e5ccfd" fill-opacity="1"><g transform="translate(21.720665, 52.676749)"><g><path d="M 5.78125 -6.765625 L 4.671875 -2.226562 L 3.925781 -6.109375 L 2.613281 -6.109375 L 2.835938 -4.929688 L 2.175781 -2.226562 L 1.316406 -6.765625 L 0 -6.765625 L 1.28125 0.0078125 L 2.953125 0.0078125 L 3.417969 -1.871094 L 3.777344 0.0078125 L 5.449219 0.0078125 L 7.113281 -6.765625 Z M 5.78125 -6.765625 "/></g></g></g><g fill="#e5ccfd" fill-opacity="1"><g transform="translate(29.280658, 52.676749)"><g><path d="M 3.585938 -6.773438 L 0 -6.78125 L 0 -0.0078125 L 3.585938 -0.0078125 L 3.585938 -1.304688 L 1.296875 -1.304688 L 1.296875 -2.925781 L 2.773438 -2.925781 L 2.773438 -4.222656 L 1.296875 -4.222656 L 1.296875 -5.484375 L 3.585938 -5.484375 Z M 3.585938 -6.773438 "/></g></g></g><g fill="#e5ccfd" fill-opacity="1"><g transform="translate(33.315632, 52.676749)"><g><path d="M 3.597656 -2.113281 C 3.597656 -2.738281 3.320312 -3.308594 2.871094 -3.695312 C 3.113281 -4.015625 3.257812 -4.417969 3.257812 -4.847656 C 3.257812 -5.914062 2.398438 -6.773438 1.332031 -6.773438 L 1.296875 -6.773438 L 1.296875 -6.78125 L 0 -6.78125 L 0 -0.0078125 L 1.671875 -0.0078125 C 2.746094 -0.0976562 3.597656 -1.011719 3.597656 -2.113281 Z M 1.304688 -5.476562 L 1.332031 -5.476562 C 1.683594 -5.476562 1.96875 -5.199219 1.96875 -4.847656 C 1.96875 -4.5 1.683594 -4.222656 1.332031 -4.222656 L 1.304688 -4.222656 Z M 1.484375 -1.289062 L 1.304688 -1.289062 L 1.304688 -2.925781 L 1.484375 -2.925781 C 1.933594 -2.925781 2.300781 -2.558594 2.300781 -2.113281 C 2.300781 -1.65625 1.933594 -1.289062 1.484375 -1.289062 Z M 1.484375 -1.289062 "/></g></g></g><g fill="#e5ccfd" fill-opacity="1"><g transform="translate(37.359558, 52.676749)"><g><path d="M 0 -4.929688 C 0 -3.675781 0.734375 -2.945312 2.023438 -2.90625 L 2.226562 -2.90625 C 2.378906 -2.90625 2.683594 -2.90625 2.683594 -2.453125 L 2.683594 -1.808594 C 2.683594 -1.566406 2.34375 -1.289062 1.859375 -1.289062 L 0.160156 -1.289062 L 0.160156 0.0078125 L 1.859375 0.0078125 C 3.023438 0.0078125 3.972656 -0.804688 3.972656 -1.808594 L 3.972656 -2.453125 C 3.972656 -3.292969 3.425781 -4.203125 2.226562 -4.203125 L 2.113281 -4.203125 C 1.519531 -4.203125 1.296875 -4.339844 1.296875 -4.929688 C 1.296875 -5.136719 1.558594 -5.476562 1.753906 -5.476562 L 2.46875 -5.476562 L 3.765625 -5.464844 L 3.765625 -6.765625 L 1.59375 -6.765625 C 0.6875 -6.664062 0 -5.734375 0 -4.929688 Z M 0 -4.929688 "/></g></g></g><g fill="#e5ccfd" fill-opacity="1"><g transform="translate(41.779243, 52.676749)"><g><path d="M 1.296875 -6.78125 L 0 -6.78125 L 0 -0.0078125 L 1.296875 -0.0078125 Z M 1.296875 -6.78125 "/></g></g></g><g fill="#e5ccfd" fill-opacity="1"><g transform="translate(43.523852, 52.676749)"><g><path d="M 0 -6.753906 L 0 -5.464844 L 1.734375 -5.464844 L 1.734375 0.0078125 L 3.023438 0.0078125 L 3.023438 -5.464844 L 4.757812 -5.464844 L 4.757812 -6.753906 L 3.023438 -6.753906 L 3.023438 -6.765625 L 1.734375 -6.765625 L 1.734375 -6.753906 Z M 0 -6.753906 "/></g></g></g><g fill="#e5ccfd" fill-opacity="1"><g transform="translate(48.730855, 52.676749)"><g><path d="M 3.585938 -6.773438 L 0 -6.78125 L 0 -0.0078125 L 3.585938 -0.0078125 L 3.585938 -1.304688 L 1.296875 -1.304688 L 1.296875 -2.925781 L 2.773438 -2.925781 L 2.773438 -4.222656 L 1.296875 -4.222656 L 1.296875 -5.484375 L 3.585938 -5.484375 Z M 3.585938 -6.773438 "/></g></g></g></svg>